<?xml version="1.0" encoding="utf-8"?>
<svg viewBox="0 0 500 500" xmlns="http://www.w3.org/2000/svg">
  <path fill-rule="evenodd" clip-rule="evenodd" d="M 167.689 86.46 L 189.89 86.46 L 187.466 269.223 L 165.265 269.223 L 165.691 237.148 L 165.055 237.148 C 145.627 267.215 115.096 273.566 97.019 273.566 C 42.469 273.566 4.356 229.795 5.051 177.338 C 5.698 128.558 42.793 81.782 99.564 81.782 C 118.278 81.782 148.639 88.132 166.627 118.536 L 167.263 118.536 L 167.689 86.46 Z M 99.283 102.832 C 61.226 102.832 27.855 131.899 27.238 178.34 C 26.698 219.106 54.798 252.514 97.298 252.514 C 134.722 252.514 167.177 220.774 167.744 178.009 C 168.276 137.915 139.244 102.832 99.283 102.832 Z" fill="white" style="" transform="matrix(0.999983, 0.005865, -0.005865, 0.999983, 1.043812, -0.568623)"/>
  <path d="M 237.59 270.605 L 259.652 270.605 L 261.81 107.792 L 303.089 107.792 L 303.371 86.599 L 262.092 86.599 L 262.953 21.678 L 240.891 21.678 L 240.03 86.599 L 203.791 86.599 L 203.509 107.792 L 239.748 107.792 L 237.59 270.605 Z" fill="white" style="" transform="matrix(0.999983, 0.005865, -0.005865, 0.999983, 0.861543, -1.484023)"/>
  <path fill-rule="evenodd" clip-rule="evenodd" d="M 238.953 293.407 L 261.091 293.407 L 260.809 314.622 L 260.186 313.946 L 260.177 314.622 L 260.809 314.622 C 270.853 296.441 292.143 288.696 308.274 288.696 C 322.82 288.696 353.403 295.767 365.992 324.048 C 379.335 295.767 410.104 288.696 424.65 288.696 C 451.215 288.696 493.684 305.53 492.853 368.152 L 491.401 477.57 L 469.264 477.57 L 470.68 370.842 C 470.947 350.643 467.599 340.88 463.283 332.463 C 456.181 319.332 443.027 309.907 424.369 309.907 C 405.711 309.907 392.302 319.332 384.854 332.463 C 380.315 340.88 376.706 350.643 376.439 370.842 L 375.023 477.57 L 352.886 477.57 L 354.302 370.842 C 354.569 350.643 351.222 340.88 346.905 332.463 C 339.805 319.332 326.649 309.907 307.993 309.907 C 289.333 309.907 275.926 319.332 268.477 332.463 C 263.939 340.88 260.33 350.643 260.063 370.842 L 258.647 477.57 L 236.509 477.57 L 238.953 293.407 Z" fill="white" style="" transform="matrix(0.999983, 0.005865, -0.005865, 0.999983, 2.253516, -2.132458)"/>
  <path fill-rule="evenodd" clip-rule="evenodd" d="M 106.861 479.94 C 56.006 479.94 16.879 434.611 17.539 384.909 C 18.31 326.817 63.65 287.193 109.418 287.193 C 160.908 287.193 200.028 333.197 199.359 383.568 C 198.695 433.6 158.987 479.94 106.861 479.94 Z M 109.456 308.349 C 77.671 308.349 40.436 335.883 39.791 384.576 C 39.225 427.221 71.543 458.786 107.461 458.786 C 141.151 458.786 176.488 430.58 177.125 382.561 C 177.766 334.204 139.333 308.349 109.456 308.349 Z" fill="white" style="" transform="matrix(0.999983, 0.005865, -0.005865, 0.999983, 2.251651, -0.629503)"/>
</svg>