<svg width="40" height="40" viewBox="0 0 40 40" fill="none" xmlns="http://www.w3.org/2000/svg">
<path fill-rule="evenodd" clip-rule="evenodd" d="M8.23674 6.35387L20.2355 17.6014L31.4801 6.12256C31.3376 6.04443 31.174 6 31 6H9C8.69404 6 8.42018 6.1374 8.23674 6.35387ZM32 8.44985L21.6642 19.001C20.9033 19.7778 19.6611 19.8042 18.8677 19.0606L8 8.87327V14.132L20.2355 25.6014L32 13.5918V8.44985ZM8 21.3408V16.8733L18.8677 27.0606C19.6611 27.8042 20.9033 27.7778 21.6642 27.001L32 16.4499V21.3408C32 21.5948 31.9033 21.8393 31.7296 22.0247L20.7296 33.7595C20.3345 34.1809 19.6655 34.1809 19.2704 33.7595L8.27042 22.0247C8.09668 21.8393 8 21.5948 8 21.3408ZM6 7C6 5.34314 7.34315 4 9 4H31C32.6569 4 34 5.34315 34 7V21.3408C34 22.1029 33.7099 22.8364 33.1887 23.3924L22.1887 35.1273C21.0035 36.3917 18.9965 36.3917 17.8113 35.1273L6.81126 23.3924C6.29005 22.8364 6 22.1029 6 21.3408V7Z" fill="#7D98D6"/>
<path fill-rule="evenodd" clip-rule="evenodd" d="M8.23674 6.35387L20.2355 17.6014L31.4801 6.12256C31.3376 6.04443 31.174 6 31 6H9C8.69404 6 8.42018 6.1374 8.23674 6.35387ZM32 8.44985L21.6642 19.001C20.9033 19.7778 19.6611 19.8042 18.8677 19.0606L8 8.87327V14.132L20.2355 25.6014L32 13.5918V8.44985ZM8 21.3408V16.8733L18.8677 27.0606C19.6611 27.8042 20.9033 27.7778 21.6642 27.001L32 16.4499V21.3408C32 21.5948 31.9033 21.8393 31.7296 22.0247L20.7296 33.7595C20.3345 34.1809 19.6655 34.1809 19.2704 33.7595L8.27042 22.0247C8.09668 21.8393 8 21.5948 8 21.3408ZM6 7C6 5.34314 7.34315 4 9 4H31C32.6569 4 34 5.34315 34 7V21.3408C34 22.1029 33.7099 22.8364 33.1887 23.3924L22.1887 35.1273C21.0035 36.3917 18.9965 36.3917 17.8113 35.1273L6.81126 23.3924C6.29005 22.8364 6 22.1029 6 21.3408V7Z" fill="url(#paint0_linear)"/>
<defs>
<linearGradient id="paint0_linear" x1="20" y1="4" x2="20" y2="36.0756" gradientUnits="userSpaceOnUse">
<stop stop-color="white" stop-opacity="0.39"/>
<stop offset="1" stop-color="white" stop-opacity="0"/>
</linearGradient>
</defs>
</svg>
