<?xml version="1.0" encoding="UTF-8" standalone="no"?>
<!DOCTYPE svg PUBLIC "-//W3C//DTD SVG 1.1//EN" "http://www.w3.org/Graphics/SVG/1.1/DTD/svg11.dtd">
<svg version="1.1" xmlns="http://www.w3.org/2000/svg" xmlns:xlink="http://www.w3.org/1999/xlink" preserveAspectRatio="xMidYMid meet" viewBox="0 0 640 640" width="640" height="640"><defs><path d="M497.94 233.56C497.94 288.32 453.48 332.78 398.72 332.78C343.96 332.78 299.5 288.32 299.5 233.56C299.5 178.8 343.96 134.34 398.72 134.34C453.48 134.34 497.94 178.8 497.94 233.56Z" id="a3eVhpSV1"></path><path d="M453.17 477.37C453.17 512.09 424.97 540.28 390.25 540.28C355.52 540.28 327.33 512.09 327.33 477.37C327.33 442.64 355.52 414.45 390.25 414.45C424.97 414.45 453.17 442.64 453.17 477.37Z" id="a4dj9AAkzi"></path><path d="M278.93 387.83C278.93 434.24 241.25 471.92 194.84 471.92C148.43 471.92 110.75 434.24 110.75 387.83C110.75 341.42 148.43 303.74 194.84 303.74C241.25 303.74 278.93 341.42 278.93 387.83Z" id="cNUErV5qq"></path></defs><g><g><g><use xlink:href="#a3eVhpSV1" opacity="1" fill="#5421ad" fill-opacity="0"></use><g><use xlink:href="#a3eVhpSV1" opacity="1" fill-opacity="0" stroke="#ffffff" stroke-width="40" stroke-opacity="1"></use></g></g><g><use xlink:href="#a4dj9AAkzi" opacity="1" fill="#5421ad" fill-opacity="0"></use><g><use xlink:href="#a4dj9AAkzi" opacity="1" fill-opacity="0" stroke="#ffffff" stroke-width="40" stroke-opacity="1"></use></g></g><g><use xlink:href="#cNUErV5qq" opacity="1" fill="#5421ad" fill-opacity="0"></use><g><use xlink:href="#cNUErV5qq" opacity="1" fill-opacity="0" stroke="#ffffff" stroke-width="40" stroke-opacity="1"></use></g></g></g></g></svg>