<?xml version="1.0" encoding="utf-8"?>
<svg width="86" height="86" viewBox="0 0 86 86" fill="none" xmlns="http://www.w3.org/2000/svg">
  <path fill-rule="evenodd" clip-rule="evenodd" d="M27.8564 10.6932H31.6873V40.4393H27.8564V35.2187H27.7469C24.4633 40.113 19.2094 41.1462 16.0899 41.1462C6.67676 41.1462 0 34.0224 0 25.4846C0 17.5451 6.2937 9.93184 16.0899 9.93184C19.3189 9.93184 24.5727 10.9651 27.7469 15.9137H27.8564V10.6932ZM16.0899 13.3578C9.52263 13.3578 3.83093 18.0889 3.83093 25.6478C3.83093 32.2822 8.75642 37.7203 16.0899 37.7203C22.5478 37.7203 28.0753 32.5541 28.0753 25.5934C28.0753 19.0677 22.9856 13.3578 16.0899 13.3578Z" fill="black"/>
  <path d="M40.3055 40.5156H44.1122V14.0162H51.2356V10.5669H44.1122V0H40.3055V10.5669H34.0521V14.0162H40.3055V40.5156Z" fill="black"/>
  <path fill-rule="evenodd" clip-rule="evenodd" d="M40.8307 44.1203H44.6509V47.5727L44.5418 47.4631V47.5727L44.6509 47.5727C46.3424 44.6136 49.9988 43.3533 52.782 43.3533C55.2922 43.3533 60.5856 44.504 62.8228 49.1072C65.0603 44.504 70.3538 43.3533 72.864 43.3533C77.4478 43.3533 84.8149 46.0933 84.8149 56.2857V74.0946H80.995V56.7237C80.995 53.4361 80.3945 51.8468 79.6306 50.477C78.3753 48.3397 76.0834 46.8056 72.864 46.8056C69.6442 46.8056 67.3522 48.3397 66.0969 50.477C65.333 51.8468 64.7329 53.4361 64.7329 56.7237V74.0946H60.913V56.7237C60.913 53.4361 60.3126 51.8468 59.5486 50.477C58.2933 48.3397 56.0014 46.8056 52.782 46.8056C49.5622 46.8056 47.2703 48.3397 46.015 50.477C45.251 51.8468 44.6509 53.4361 44.6509 56.7237V74.0946H40.8307V44.1203Z" fill="black"/>
  <path fill-rule="evenodd" clip-rule="evenodd" d="M18.4689 74.7251C9.69355 74.7251 2.83777 67.3469 2.83777 59.2579C2.83777 49.8025 10.5711 43.3533 18.4689 43.3533C27.354 43.3533 34.2098 50.841 34.2098 59.0392C34.2098 67.183 27.4637 74.7251 18.4689 74.7251ZM18.5238 46.7967C13.0392 46.7967 6.67699 51.2784 6.67699 59.2031C6.67699 66.1444 12.3262 71.282 18.5238 71.282C24.3375 71.282 30.3706 66.6909 30.3706 58.8753C30.3706 51.0049 23.6793 46.7967 18.5238 46.7967Z" fill="black"/>
</svg>