<svg width="275" height="315" viewBox="0 0 275 315" fill="none" xmlns="http://www.w3.org/2000/svg">
<path d="M23.6366 197.818H7.89795L17.8695 256H36.5911L65.8809 197.818H50.1423L30.057 240.432H29.5741L23.6366 197.818Z" fill="#240D67"/>
<path d="M62.486 256H76.3781L83.6508 212.364H69.7587L62.486 256ZM77.6849 207.25C81.6053 207.25 85.2133 204.239 85.7247 200.602C86.2076 196.937 83.4803 193.983 79.5315 193.983C75.611 193.983 72.0031 196.937 71.4349 200.602C70.8951 204.239 73.736 207.25 77.6849 207.25Z" fill="#240D67"/>
<path d="M128.26 225.687C129.027 217.08 122.522 211.795 110.334 211.795C98.9136 211.795 90.9306 216.511 89.5102 224.949C88.3454 231.966 92.1806 236.625 100.647 238.244L108.033 239.693C111.556 240.403 112.692 241.199 112.465 242.818C112.124 245.347 108.942 247.278 105.022 247.193C101.47 247.136 99.2829 245.517 99.1693 242.307L85.6465 242.648C85.2204 251.199 91.8965 256.824 104.681 256.824C116.073 256.824 125.135 251.398 126.612 242.761C127.692 236.057 123.828 231.966 115.419 230.29L107.237 228.699C103.715 227.96 102.976 226.966 103.26 225.602C103.601 223.102 106.84 221.312 110.419 221.312C113.715 221.312 115.76 223.216 115.732 226.028L128.26 225.687Z" fill="#240D67"/>
<path d="M131.236 256H145.128L152.401 212.364H138.509L131.236 256ZM146.435 207.25C150.355 207.25 153.963 204.239 154.475 200.602C154.958 196.937 152.23 193.983 148.281 193.983C144.361 193.983 140.753 196.937 140.185 200.602C139.645 204.239 142.486 207.25 146.435 207.25Z" fill="#240D67"/>
<path d="M174.311 256.824C188.004 256.824 197.777 247.79 199.993 234.409C202.209 220.915 195.362 211.795 181.641 211.795C167.919 211.795 158.147 220.83 155.959 234.239C153.715 247.705 160.533 256.824 174.311 256.824ZM175.874 246.341C170.845 246.341 168.885 241.511 170.078 234.324C171.243 227.051 174.965 222.08 180.078 222.08C185.078 222.08 187.039 226.966 185.874 234.125C184.681 241.426 180.987 246.341 175.874 246.341Z" fill="#240D67"/>
<path d="M221.627 231.114C222.451 226.142 225.888 223.187 230.263 223.187C234.723 223.187 236.769 226.085 235.973 230.915L231.797 256H245.689L250.348 228.187C251.996 218.33 247.081 211.795 237.933 211.795C231.456 211.795 225.973 215.034 223.246 220.375H222.763L224.07 212.364H210.86L203.587 256H217.479L221.627 231.114Z" fill="#240D67"/>
<path d="M37.9831 288C37.1266 283.18 33.1891 279.46 27.6152 279.46C21.0058 279.46 16.3013 284.714 16.3013 292.909C16.3013 301.104 21.0058 306.358 27.6152 306.358C33.1891 306.358 37.1266 302.625 37.9831 297.818H35.5797C34.851 301.411 31.7189 304.108 27.6152 304.108C22.655 304.108 18.6152 300.183 18.6152 292.909C18.6152 285.661 22.655 281.71 27.6152 281.71C31.7189 281.71 34.851 284.42 35.5797 288H37.9831Z" fill="#767185"/>
<path d="M50.4385 306H65.3064V303.852H52.8291V279.818H50.4385V306Z" fill="#767185"/>
<path d="M79.2192 306L82.0189 298.112H93.0132L95.8129 306H98.3186L88.7945 279.818H86.2377L76.7135 306H79.2192ZM82.786 295.964L87.4266 282.925H87.6056L92.2462 295.964H82.786Z" fill="#767185"/>
<path d="M112.036 279.818H109.646V306H112.036V279.818Z" fill="#767185"/>
<path d="M125.837 279.818V306H128.087V284.868H128.292L137.126 306H139.299L148.133 284.868H148.337V306H150.587V279.818H147.826L138.327 302.625H138.097L128.599 279.818H125.837Z" fill="#767185"/>
<path d="M178.604 286.364H180.918C180.739 282.388 177.3 279.447 172.43 279.447C167.597 279.447 163.877 282.349 163.877 286.568C163.877 289.93 166.255 292.04 170.359 293.254L173.491 294.175C176.738 295.121 178.962 296.335 178.962 299.007C178.962 302.152 176.111 304.261 172.199 304.261C168.671 304.261 165.91 302.561 165.654 299.455H163.199C163.481 303.597 166.856 306.447 172.199 306.447C177.876 306.447 181.276 303.239 181.276 299.045C181.276 294.699 177.492 292.96 174.168 292.027L171.407 291.234C168.863 290.518 166.191 289.227 166.191 286.466C166.191 283.653 168.709 281.595 172.366 281.595C175.83 281.595 178.31 283.449 178.604 286.364Z" fill="#767185"/>
<path d="M210.872 306L213.672 298.112H224.666L227.466 306H229.972L220.448 279.818H217.891L208.367 306H210.872ZM214.439 295.964L219.08 282.925H219.259L223.899 295.964H214.439Z" fill="#767185"/>
<path d="M243.69 279.818H241.299V306H243.69V279.818Z" fill="#767185"/>
<path fill-rule="evenodd" clip-rule="evenodd" d="M91.1232 24.7801L137.918 68.6455L181.772 23.878C181.216 23.5733 180.578 23.4 179.9 23.4H94.0999C92.9067 23.4 91.8386 23.9359 91.1232 24.7801ZM183.8 32.9544L143.49 74.1038C140.523 77.1334 135.678 77.2366 132.584 74.3362L90.1999 34.6058V55.1146L137.918 99.8455L183.8 53.0081V32.9544ZM90.1999 83.229V65.8058L132.584 105.536C135.678 108.437 140.523 108.333 143.49 105.304L183.8 64.1545V83.229C183.8 84.2197 183.423 85.1733 182.745 85.8962L139.845 131.662C138.304 133.306 135.695 133.306 134.155 131.662L91.2545 85.8962C90.577 85.1733 90.1999 84.2197 90.1999 83.229ZM82.3999 27.3C82.3999 20.8383 87.6382 15.6 94.0999 15.6H179.9C186.362 15.6 191.6 20.8383 191.6 27.3V83.229C191.6 86.2012 190.469 89.0621 188.436 91.2305L145.536 136.996C140.914 141.928 133.086 141.928 128.464 136.996L85.5638 91.2305C83.5311 89.0621 82.3999 86.2012 82.3999 83.229V27.3Z" fill="#7D98D6"/>
<path fill-rule="evenodd" clip-rule="evenodd" d="M91.1232 24.7801L137.918 68.6455L181.772 23.878C181.216 23.5733 180.578 23.4 179.9 23.4H94.0999C92.9067 23.4 91.8386 23.9359 91.1232 24.7801ZM183.8 32.9544L143.49 74.1038C140.523 77.1334 135.678 77.2366 132.584 74.3362L90.1999 34.6058V55.1146L137.918 99.8455L183.8 53.0081V32.9544ZM90.1999 83.229V65.8058L132.584 105.536C135.678 108.437 140.523 108.333 143.49 105.304L183.8 64.1545V83.229C183.8 84.2197 183.423 85.1733 182.745 85.8962L139.845 131.662C138.304 133.306 135.695 133.306 134.155 131.662L91.2545 85.8962C90.577 85.1733 90.1999 84.2197 90.1999 83.229ZM82.3999 27.3C82.3999 20.8383 87.6382 15.6 94.0999 15.6H179.9C186.362 15.6 191.6 20.8383 191.6 27.3V83.229C191.6 86.2012 190.469 89.0621 188.436 91.2305L145.536 136.996C140.914 141.928 133.086 141.928 128.464 136.996L85.5638 91.2305C83.5311 89.0621 82.3999 86.2012 82.3999 83.229V27.3Z" fill="url(#paint0_linear)"/>
<defs>
<linearGradient id="paint0_linear" x1="137" y1="15.6" x2="137" y2="140.695" gradientUnits="userSpaceOnUse">
<stop stop-color="white" stop-opacity="0.39"/>
<stop offset="1" stop-color="white" stop-opacity="0"/>
</linearGradient>
</defs>
</svg>
