<?xml version="1.0" encoding="utf-8"?>
<svg width="86" height="86" viewBox="0 0 86 86" fill="none" xmlns="http://www.w3.org/2000/svg">
  <path fill-rule="evenodd" clip-rule="evenodd" d="M 4.601 84.671 L 2.757 84.671 L 2.361 85.692 L 1.614 85.692 L 3.387 81.376 L 4.011 81.376 L 5.756 85.692 L 5.009 85.692 L 4.601 84.671 Z M 2.944 84.117 L 4.414 84.117 L 3.673 82.175 L 2.944 84.117 Z" fill="black"/>
  <path d="M 10.938 85.72 L 11.626 85.72 L 11.626 82.011 L 12.618 82.011 L 12.618 81.404 L 9.946 81.404 L 9.946 82.011 L 10.938 82.011 L 10.938 85.72 Z" fill="black"/>
  <path fill-rule="evenodd" clip-rule="evenodd" d="M 18.871 85.745 C 17.57 85.745 16.619 84.724 16.619 83.535 L 16.619 83.528 C 16.619 82.169 17.663 81.265 18.876 81.265 C 20.166 81.265 21.14 82.263 21.14 83.505 C 21.14 84.748 20.166 85.745 18.871 85.745 Z M 18.882 81.866 C 17.943 81.866 17.302 82.624 17.302 83.494 L 17.302 83.499 C 17.302 84.398 17.966 85.133 18.888 85.133 C 19.827 85.133 20.451 84.345 20.451 83.505 C 20.451 82.659 19.827 81.866 18.882 81.866 Z" fill="black"/>
  <path d="M 24.844 85.748 L 24.826 82.109 L 26.255 85.748 L 26.704 85.748 L 28.133 82.109 L 28.116 85.748 L 28.752 85.748 L 28.752 81.432 L 27.813 81.432 L 26.489 84.774 L 25.147 81.432 L 24.202 81.432 L 24.202 85.748 L 24.844 85.748 Z" fill="black"/>
  <!-- <path d="M 36.268 85.777 L 36.956 85.777 L 36.956 83.928 L 38.496 83.928 L 38.496 83.328 L 36.956 83.328 L 36.956 82.068 L 38.52 82.068 L 38.52 81.461 L 36.268 81.461 L 36.268 85.777 Z" fill="black"/>
  <path fill-rule="evenodd" clip-rule="evenodd" d="M 45.907 84.784 L 44.064 84.784 L 43.668 85.805 L 42.921 85.805 L 44.694 81.489 L 45.319 81.489 L 47.063 85.805 L 46.316 85.805 L 45.907 84.784 Z M 44.251 84.23 L 45.721 84.23 L 44.98 82.288 L 44.251 84.23 Z" fill="black"/>
  <path d="M 51.183 84.556 C 51.195 85.39 51.743 85.915 52.6 85.915 C 53.522 85.915 53.994 85.308 53.994 84.608 C 53.994 83.909 53.493 83.634 52.956 83.407 C 52.262 83.15 51.941 83.045 51.941 82.625 C 51.941 82.258 52.245 82.018 52.595 82.018 C 53.091 82.018 53.195 82.392 53.242 82.625 L 53.919 82.625 C 53.866 81.738 53.172 81.435 52.618 81.435 C 51.941 81.435 51.253 81.873 51.259 82.678 C 51.259 83.489 52.011 83.739 52.35 83.85 C 52.904 84.054 53.312 84.165 53.312 84.644 C 53.312 85.028 52.979 85.332 52.595 85.332 C 52.367 85.332 51.912 85.204 51.866 84.556 L 51.183 84.556 Z" fill="black"/>
  <path d="M 59.256 85.861 L 59.256 83.972 L 61.117 83.972 L 61.117 85.861 L 61.805 85.861 L 61.805 81.545 L 61.117 81.545 L 61.117 83.365 L 59.256 83.365 L 59.256 81.545 L 58.568 81.545 L 58.568 85.861 L 59.256 85.861 Z" fill="black"/>
  <path d="M 67.44 85.89 L 68.128 85.89 L 68.128 81.574 L 67.44 81.574 L 67.44 85.89 Z" fill="black"/>
  <path fill-rule="evenodd" clip-rule="evenodd" d="M 75.372 85.924 C 74.072 85.924 73.121 84.903 73.121 83.714 L 73.121 83.707 C 73.121 82.348 74.165 81.444 75.378 81.444 C 76.667 81.444 77.641 82.442 77.641 83.684 C 77.641 84.927 76.667 85.924 75.372 85.924 Z M 75.384 82.045 C 74.445 82.045 73.803 82.803 73.803 83.673 L 73.803 83.678 C 73.803 84.577 74.468 85.312 75.39 85.312 C 76.329 85.312 76.953 84.524 76.953 83.684 C 76.953 82.838 76.329 82.045 75.384 82.045 Z" fill="black"/>
  <path d="M 81.811 81.531 L 81.163 81.531 L 81.163 85.847 L 81.828 85.847 L 81.817 82.558 L 84.074 85.847 L 84.704 85.847 L 84.704 81.531 L 84.039 81.531 L 84.051 84.815 L 81.811 81.531 Z" fill="black"/>
  <path fill-rule="evenodd" clip-rule="evenodd" d="M27.8564 10.6932H31.6873V40.4393H27.8564V35.2187H27.7469C24.4633 40.113 19.2094 41.1462 16.0899 41.1462C6.67676 41.1462 0 34.0224 0 25.4846C0 17.5451 6.2937 9.93184 16.0899 9.93184C19.3189 9.93184 24.5727 10.9651 27.7469 15.9137H27.8564V10.6932ZM16.0899 13.3578C9.52263 13.3578 3.83093 18.0889 3.83093 25.6478C3.83093 32.2822 8.75642 37.7203 16.0899 37.7203C22.5478 37.7203 28.0753 32.5541 28.0753 25.5934C28.0753 19.0677 22.9856 13.3578 16.0899 13.3578Z" fill="black"/>
  <path d="M40.3055 40.5156H44.1122V14.0162H51.2356V10.5669H44.1122V0H40.3055V10.5669H34.0521V14.0162H40.3055V40.5156Z" fill="black"/>
  <path fill-rule="evenodd" clip-rule="evenodd" d="M40.8307 44.1203H44.6509V47.5727L44.5418 47.4631V47.5727L44.6509 47.5727C46.3424 44.6136 49.9988 43.3533 52.782 43.3533C55.2922 43.3533 60.5856 44.504 62.8228 49.1072C65.0603 44.504 70.3538 43.3533 72.864 43.3533C77.4478 43.3533 84.8149 46.0933 84.8149 56.2857V74.0946H80.995V56.7237C80.995 53.4361 80.3945 51.8468 79.6306 50.477C78.3753 48.3397 76.0834 46.8056 72.864 46.8056C69.6442 46.8056 67.3522 48.3397 66.0969 50.477C65.333 51.8468 64.7329 53.4361 64.7329 56.7237V74.0946H60.913V56.7237C60.913 53.4361 60.3126 51.8468 59.5486 50.477C58.2933 48.3397 56.0014 46.8056 52.782 46.8056C49.5622 46.8056 47.2703 48.3397 46.015 50.477C45.251 51.8468 44.6509 53.4361 44.6509 56.7237V74.0946H40.8307V44.1203Z" fill="black"/>
  <path fill-rule="evenodd" clip-rule="evenodd" d="M18.4689 74.7251C9.69355 74.7251 2.83777 67.3469 2.83777 59.2579C2.83777 49.8025 10.5711 43.3533 18.4689 43.3533C27.354 43.3533 34.2098 50.841 34.2098 59.0392C34.2098 67.183 27.4637 74.7251 18.4689 74.7251ZM18.5238 46.7967C13.0392 46.7967 6.67699 51.2784 6.67699 59.2031C6.67699 66.1444 12.3262 71.282 18.5238 71.282C24.3375 71.282 30.3706 66.6909 30.3706 58.8753C30.3706 51.0049 23.6793 46.7967 18.5238 46.7967Z" fill="black"/> -->
</svg>