<svg viewBox="0 0 54 53" fill="none" xmlns="http://www.w3.org/2000/svg">
<path fill-rule="evenodd" clip-rule="evenodd" d="M2.09456 29.1927C0.483257 29.1927 -0.234112 31.2172 1.01771 32.2317L25.8144 52.3278C26.4422 52.8366 27.3403 52.8366 27.9681 52.3278L52.7648 32.2317C54.0166 31.2172 53.2993 29.1927 51.688 29.1927H45.7047C44.7601 29.1927 43.9944 28.427 43.9944 27.4824L43.9944 1.71032C43.9944 0.765739 43.2286 7.62939e-06 42.2841 7.62939e-06L12.3536 7.62939e-06C11.409 7.62939e-06 10.6433 0.765739 10.6433 1.71032L10.6433 27.4824C10.6433 28.427 9.87757 29.1927 8.93299 29.1927L2.09456 29.1927Z" fill="#D24D02"/>
</svg>
